<?xml version="1.0" encoding="UTF-8" standalone="no"?>
<!DOCTYPE svg PUBLIC "-//W3C//DTD SVG 1.1//EN" "http://www.w3.org/Graphics/SVG/1.1/DTD/svg11.dtd">
<svg xmlns="http://www.w3.org/2000/svg" version="1.1" viewBox="0 0 298 56">
<path fill="#ffffff" d="
  M 232.50 3.46
  Q 245.51 4.63 247.19 17.26
  A 0.53 0.47 84.5 0 1 246.76 17.85
  L 239.75 18.25
  Q 237.35 18.39 237.00 17.00
  C 236.03 13.20 233.49 11.48 229.59 11.37
  C 226.17 11.27 220.32 11.36 219.82 16.10
  C 218.99 23.85 245.56 20.75 248.39 35.73
  C 249.93 43.86 245.48 51.34 237.25 53.50
  C 224.75 56.79 210.15 53.08 208.61 38.06
  A 0.50 0.49 -5.8 0 1 209.06 37.52
  L 217.21 36.62
  A 1.09 1.07 -8.6 0 1 218.40 37.48
  C 219.15 41.30 220.77 43.65 224.44 45.22
  C 229.03 47.18 237.90 46.08 238.86 39.79
  C 239.69 34.39 229.35 32.32 224.50 31.50
  C 206.36 28.44 205.09 4.95 224.25 3.46
  L 232.50 3.46
  Z"
/>
<rect fill="#ffffff" x="56.25" y="3.61" width="9.76" height="49.76" rx="0.26"/>
<path fill="#ffffff" d="
  M 35.44 42.31
  L 16.45 42.19
  A 0.77 0.67 8.5 0 0 15.75 42.64
  L 12.09 52.49
  A 1.25 1.22 9.4 0 1 10.96 53.28
  L 2.24 53.50
  A 0.76 0.72 9.2 0 1 1.49 52.52
  L 20.19 4.29
  A 0.85 0.83 -79.2 0 1 20.97 3.75
  L 30.52 3.75
  A 0.77 0.76 -10.7 0 1 31.23 4.23
  L 50.51 52.72
  A 0.38 0.36 78.2 0 1 50.19 53.24
  L 40.94 53.45
  A 1.18 1.12 78.2 0 1 39.85 52.70
  L 36.09 42.79
  A 0.74 0.68 78.8 0 0 35.44 42.31
  Z
  M 19.11 33.33
  A 0.34 0.34 9.7 0 0 19.43 33.78
  L 32.03 33.72
  A 0.34 0.34 -11.1 0 0 32.35 33.26
  L 25.96 16.14
  A 0.34 0.34 -43.8 0 0 25.32 16.14
  L 19.11 33.33
  Z"
/>
<path fill="#ffffff" d="
  M 116.03 27.23
  Q 126.46 31.13 124.50 42.25
  C 122.86 51.59 113.63 53.50 105.75 53.56
  Q 95.25 53.62 84.22 53.76
  A 0.72 0.71 0.0 0 1 83.50 53.05
  L 83.50 4.54
  A 0.78 0.77 -0.4 0 1 84.27 3.77
  C 92.69 3.63 108.62 2.19 115.76 5.65
  C 124.43 9.84 125.01 22.35 116.01 26.85
  Q 115.58 27.06 116.03 27.23
  Z
  M 110.30 13.18
  A 5.02 3.96 58.0 0 0 107.66 12.23
  L 93.89 12.02
  A 0.65 0.63 -89.6 0 0 93.25 12.67
  L 93.25 22.84
  A 0.91 0.90 -89.4 0 0 94.13 23.75
  C 97.83 23.83 107.72 24.44 110.61 22.31
  C 113.82 19.94 113.56 15.56 110.30 13.18
  Z
  M 108.25 32.21
  Q 102.78 31.44 97.25 31.79
  L 94.22 31.78
  A 1.00 0.97 -90.0 0 0 93.25 32.78
  L 93.25 44.49
  A 0.59 0.57 -86.1 0 0 93.74 45.07
  C 98.36 45.72 109.20 46.62 112.93 43.33
  C 117.14 39.62 113.98 32.48 108.25 32.21
  Z"
/>
<path fill="#ffffff" d="
  M 267.94 12.05
  L 254.45 12.05
  A 0.56 0.49 -0.5 0 1 253.89 11.57
  L 253.79 4.36
  A 0.63 0.60 -0.4 0 1 254.42 3.75
  L 292.67 3.75
  A 0.54 0.50 0.5 0 1 293.21 4.26
  L 293.06 11.51
  A 0.57 0.48 -0.1 0 1 292.50 11.98
  L 279.25 12.21
  A 0.54 0.51 89.5 0 0 278.75 12.75
  L 278.69 53.06
  A 0.70 0.70 1.2 0 1 277.96 53.76
  L 269.01 53.46
  A 0.53 0.53 1.1 0 1 268.50 52.93
  L 268.44 12.57
  A 0.52 0.50 90.0 0 0 267.94 12.05
  Z"
/>
<path fill="#01a1d2" d="
  M 165.25 22.23
  C 172.29 12.01 183.92 3.68 196.47 10.53
  C 205.56 15.49 207.78 27.18 205.07 36.72
  C 202.32 46.39 193.14 51.82 183.31 49.89
  C 175.55 48.37 169.65 42.26 165.08 35.91
  A 0.72 0.71 47.0 0 0 163.95 35.87
  Q 159.20 41.58 152.91 44.62
  C 133.05 54.22 119.32 25.99 136.50 14.50
  C 145.87 8.23 157.61 14.26 163.62 22.26
  A 1.01 1.00 43.8 0 0 165.25 22.23
  Z
  M 189.07 15.67
  C 180.22 13.68 173.86 22.65 169.36 28.79
  A 0.69 0.69 45.8 0 0 169.35 29.60
  C 172.37 33.91 178.20 41.76 183.25 42.75
  C 201.61 46.33 203.78 18.99 189.07 15.67
  Z
  M 159.43 28.61
  C 156.30 24.80 151.55 19.67 146.50 19.25
  C 128.53 17.76 135.99 48.61 152.44 36.44
  Q 156.74 33.26 159.46 29.41
  A 0.66 0.66 43.0 0 0 159.43 28.61
  Z"
/>
</svg>
